<mxfile host="app.diagrams.net" agent="Mozilla/5.0 (X11; Linux x86_64; rv:128.0) Gecko/20100101 Firefox/128.0" version="26.0.4">
  <diagram name="Page-1" id="rPjQCv6jWcPQ2KpjE6iu">
    <mxGraphModel dx="1434" dy="790" grid="1" gridSize="10" guides="1" tooltips="1" connect="1" arrows="1" fold="1" page="1" pageScale="1" pageWidth="850" pageHeight="1100" math="0" shadow="0">
      <root>
        <mxCell id="0" />
        <mxCell id="1" parent="0" />
        <mxCell id="M9ytymhfDPs7FdStXxdQ-21" value="wan_network&lt;br&gt;subnet dependent on host settings" style="ellipse;whiteSpace=wrap;html=1;" parent="1" vertex="1">
          <mxGeometry x="160" y="162" width="360" height="250" as="geometry" />
        </mxCell>
        <mxCell id="M9ytymhfDPs7FdStXxdQ-6" value="" style="endArrow=none;dashed=1;html=1;dashPattern=1 3;strokeWidth=2;rounded=0;" parent="1" edge="1">
          <mxGeometry width="50" height="50" relative="1" as="geometry">
            <mxPoint x="270" y="1060" as="sourcePoint" />
            <mxPoint x="460" y="20" as="targetPoint" />
          </mxGeometry>
        </mxCell>
        <mxCell id="M9ytymhfDPs7FdStXxdQ-20" value="vlan2&lt;div&gt;192.168.30.0/24&lt;br&gt;planned for future development&lt;/div&gt;" style="ellipse;whiteSpace=wrap;html=1;" parent="1" vertex="1">
          <mxGeometry x="610" y="738.82" width="300" height="280" as="geometry" />
        </mxCell>
        <mxCell id="M9ytymhfDPs7FdStXxdQ-1" value="router&lt;div&gt;(bird)&lt;/div&gt;" style="image;html=1;image=img/lib/clip_art/networking/Router_Icon_128x128.png" parent="1" vertex="1">
          <mxGeometry x="475" y="262" width="80" height="80" as="geometry" />
        </mxCell>
        <mxCell id="M9ytymhfDPs7FdStXxdQ-4" value="192.168.10.1" style="text;html=1;align=center;verticalAlign=middle;whiteSpace=wrap;rounded=0;" parent="1" vertex="1">
          <mxGeometry x="565" y="262" width="60" height="30" as="geometry" />
        </mxCell>
        <mxCell id="M9ytymhfDPs7FdStXxdQ-34" value="HOST" style="text;html=1;align=center;verticalAlign=middle;whiteSpace=wrap;rounded=0;fontSize=28;" parent="1" vertex="1">
          <mxGeometry x="70" y="120" width="60" height="30" as="geometry" />
        </mxCell>
        <mxCell id="M9ytymhfDPs7FdStXxdQ-36" value="DOCKER LAB" style="text;html=1;align=center;verticalAlign=middle;whiteSpace=wrap;rounded=0;fontSize=28;" parent="1" vertex="1">
          <mxGeometry x="550" y="570" width="60" height="30" as="geometry" />
        </mxCell>
        <mxCell id="M9ytymhfDPs7FdStXxdQ-37" value="Networking Class Network Diagram" style="text;html=1;align=center;verticalAlign=middle;whiteSpace=wrap;rounded=0;fontSize=33;fontStyle=5" parent="1" vertex="1">
          <mxGeometry x="700" y="40" width="300" height="80" as="geometry" />
        </mxCell>
        <mxCell id="M9ytymhfDPs7FdStXxdQ-38" value="192.168.20.1" style="text;html=1;align=center;verticalAlign=middle;whiteSpace=wrap;rounded=0;" parent="1" vertex="1">
          <mxGeometry x="550" y="360" width="60" height="30" as="geometry" />
        </mxCell>
        <mxCell id="M9ytymhfDPs7FdStXxdQ-40" value="192.168.30.1" style="text;html=1;align=center;verticalAlign=middle;whiteSpace=wrap;rounded=0;" parent="1" vertex="1">
          <mxGeometry x="565" y="300.59" width="60" height="30" as="geometry" />
        </mxCell>
        <mxCell id="rK4I0Ru4w5TPzb0znIaM-2" value="" style="endArrow=classic;startArrow=classic;html=1;rounded=0;exitX=0.899;exitY=0.002;exitDx=0;exitDy=0;exitPerimeter=0;" parent="1" source="M9ytymhfDPs7FdStXxdQ-17" target="M9ytymhfDPs7FdStXxdQ-16" edge="1">
          <mxGeometry width="50" height="50" relative="1" as="geometry">
            <mxPoint x="810" y="680" as="sourcePoint" />
            <mxPoint x="1160" y="480" as="targetPoint" />
          </mxGeometry>
        </mxCell>
        <mxCell id="M9ytymhfDPs7FdStXxdQ-8" value="lan_network&lt;div&gt;192.168.10.0/24&lt;/div&gt;" style="ellipse;whiteSpace=wrap;html=1;" parent="1" vertex="1">
          <mxGeometry x="1250" y="78.82" width="360" height="320" as="geometry" />
        </mxCell>
        <mxCell id="zDrr_pWAaHO8097aBKXW-79" style="edgeStyle=orthogonalEdgeStyle;rounded=0;orthogonalLoop=1;jettySize=auto;html=1;" edge="1" parent="1" source="M9ytymhfDPs7FdStXxdQ-11">
          <mxGeometry relative="1" as="geometry">
            <mxPoint x="990" y="470" as="targetPoint" />
            <Array as="points">
              <mxPoint x="1275" y="470" />
            </Array>
          </mxGeometry>
        </mxCell>
        <mxCell id="M9ytymhfDPs7FdStXxdQ-11" value="dns_server&lt;div&gt;192.168.10.53&lt;/div&gt;&lt;div&gt;dnsmasq&lt;/div&gt;" style="image;aspect=fixed;perimeter=ellipsePerimeter;html=1;align=center;shadow=0;dashed=0;spacingTop=3;image=img/lib/active_directory/generic_server.svg;" parent="1" vertex="1">
          <mxGeometry x="1241" y="210" width="67.2" height="120" as="geometry" />
        </mxCell>
        <mxCell id="zDrr_pWAaHO8097aBKXW-77" style="edgeStyle=orthogonalEdgeStyle;rounded=0;orthogonalLoop=1;jettySize=auto;html=1;" edge="1" parent="1" source="M9ytymhfDPs7FdStXxdQ-12">
          <mxGeometry relative="1" as="geometry">
            <mxPoint x="990" y="450" as="targetPoint" />
            <Array as="points">
              <mxPoint x="1198" y="135" />
              <mxPoint x="1198" y="450" />
            </Array>
          </mxGeometry>
        </mxCell>
        <mxCell id="M9ytymhfDPs7FdStXxdQ-12" value="linux_client1&lt;div&gt;192.168.10.100&lt;/div&gt;" style="image;aspect=fixed;perimeter=ellipsePerimeter;html=1;align=center;shadow=0;dashed=0;spacingTop=3;image=img/lib/active_directory/workstation_client.svg;" parent="1" vertex="1">
          <mxGeometry x="1275" y="80.58999999999999" width="92.5" height="108.82" as="geometry" />
        </mxCell>
        <mxCell id="zDrr_pWAaHO8097aBKXW-80" style="edgeStyle=orthogonalEdgeStyle;rounded=0;orthogonalLoop=1;jettySize=auto;html=1;" edge="1" parent="1" source="M9ytymhfDPs7FdStXxdQ-16">
          <mxGeometry relative="1" as="geometry">
            <mxPoint x="990" y="490" as="targetPoint" />
            <Array as="points">
              <mxPoint x="1386" y="490" />
            </Array>
          </mxGeometry>
        </mxCell>
        <mxCell id="M9ytymhfDPs7FdStXxdQ-16" value="traffic_gen1&lt;div&gt;192.168.10.101&lt;/div&gt;" style="image;aspect=fixed;perimeter=ellipsePerimeter;html=1;align=center;shadow=0;dashed=0;spacingTop=3;image=img/lib/active_directory/workstation_client.svg;" parent="1" vertex="1">
          <mxGeometry x="1340" y="330.59" width="92.5" height="108.82" as="geometry" />
        </mxCell>
        <mxCell id="zDrr_pWAaHO8097aBKXW-81" style="edgeStyle=orthogonalEdgeStyle;rounded=0;orthogonalLoop=1;jettySize=auto;html=1;" edge="1" parent="1" source="M9ytymhfDPs7FdStXxdQ-24">
          <mxGeometry relative="1" as="geometry">
            <mxPoint x="990" y="510" as="targetPoint" />
            <Array as="points">
              <mxPoint x="1530" y="510" />
            </Array>
          </mxGeometry>
        </mxCell>
        <mxCell id="M9ytymhfDPs7FdStXxdQ-24" value="traffic_gen_server1&lt;div&gt;192.168.10.201&lt;/div&gt;" style="image;aspect=fixed;perimeter=ellipsePerimeter;html=1;align=center;shadow=0;dashed=0;spacingTop=3;image=img/lib/active_directory/generic_server.svg;" parent="1" vertex="1">
          <mxGeometry x="1500" y="330" width="59.2" height="105.71" as="geometry" />
        </mxCell>
        <mxCell id="zDrr_pWAaHO8097aBKXW-82" style="edgeStyle=orthogonalEdgeStyle;rounded=0;orthogonalLoop=1;jettySize=auto;html=1;" edge="1" parent="1" source="M9ytymhfDPs7FdStXxdQ-26">
          <mxGeometry relative="1" as="geometry">
            <mxPoint x="990" y="530" as="targetPoint" />
            <Array as="points">
              <mxPoint x="1490" y="530" />
            </Array>
          </mxGeometry>
        </mxCell>
        <mxCell id="M9ytymhfDPs7FdStXxdQ-26" value="&lt;span style=&quot;background-color: rgb(255, 28, 28);&quot;&gt;unauthorized_device&lt;/span&gt;" style="image;html=1;image=img/lib/clip_art/networking/Router_Icon_128x128.png" parent="1" vertex="1">
          <mxGeometry x="1470" y="50" width="80" height="80" as="geometry" />
        </mxCell>
        <mxCell id="rK4I0Ru4w5TPzb0znIaM-3" value="" style="endArrow=classic;startArrow=classic;html=1;rounded=0;exitX=1;exitY=0.25;exitDx=0;exitDy=0;" parent="1" source="M9ytymhfDPs7FdStXxdQ-23" target="M9ytymhfDPs7FdStXxdQ-24" edge="1">
          <mxGeometry width="50" height="50" relative="1" as="geometry">
            <mxPoint x="1190" y="930" as="sourcePoint" />
            <mxPoint x="1240" y="880" as="targetPoint" />
          </mxGeometry>
        </mxCell>
        <mxCell id="zDrr_pWAaHO8097aBKXW-24" style="edgeStyle=orthogonalEdgeStyle;rounded=0;orthogonalLoop=1;jettySize=auto;html=1;" edge="1" parent="1" target="M9ytymhfDPs7FdStXxdQ-1">
          <mxGeometry relative="1" as="geometry">
            <mxPoint x="740" y="420" as="sourcePoint" />
          </mxGeometry>
        </mxCell>
        <mxCell id="zDrr_pWAaHO8097aBKXW-25" value="trunk" style="edgeLabel;html=1;align=center;verticalAlign=middle;resizable=0;points=[];" vertex="1" connectable="0" parent="zDrr_pWAaHO8097aBKXW-24">
          <mxGeometry x="0.1168" y="2" relative="1" as="geometry">
            <mxPoint as="offset" />
          </mxGeometry>
        </mxCell>
        <mxCell id="zDrr_pWAaHO8097aBKXW-1" value="&lt;div&gt;switch&lt;/div&gt;&lt;div&gt;&lt;br&gt;&lt;/div&gt;&lt;div&gt;interfaces:&lt;/div&gt;&lt;div&gt;eth0 - router&lt;/div&gt;&lt;div&gt;&amp;nbsp;- linux_client1&lt;/div&gt;&lt;div&gt;eth2 - dns_server&lt;/div&gt;&lt;div&gt;&lt;table style=&quot;border: 1px solid rgb(0, 0, 0); border-collapse: collapse;&quot; border=&quot;1&quot;&gt;&lt;tbody&gt;&lt;tr&gt;&lt;td&gt;network&lt;br&gt;&lt;/td&gt;&lt;td&gt;interface&lt;br&gt;&lt;/td&gt;&lt;td&gt;device&lt;br&gt;&lt;/td&gt;&lt;/tr&gt;&lt;tr&gt;&lt;td&gt;lan_network&lt;br&gt;vlan1&lt;br&gt;vlan2&lt;br&gt;wan&lt;br&gt;&lt;/td&gt;&lt;td&gt;eth0&lt;/td&gt;&lt;td&gt;router&lt;br&gt;&lt;/td&gt;&lt;/tr&gt;&lt;tr&gt;&lt;td&gt;lan_network&lt;br&gt;&lt;/td&gt;&lt;td&gt;eth1&lt;br&gt;&lt;/td&gt;&lt;td&gt;linux_client1&lt;br&gt;&lt;/td&gt;&lt;/tr&gt;&lt;tr&gt;&lt;td&gt;lan_network&lt;br&gt;&lt;/td&gt;&lt;td&gt;eth2&lt;br&gt;&lt;/td&gt;&lt;td&gt;dns_server&lt;br&gt;&lt;/td&gt;&lt;/tr&gt;&lt;tr&gt;&lt;td&gt;lan_network&lt;/td&gt;&lt;td&gt;eth3&lt;br&gt;&lt;/td&gt;&lt;td&gt;traffic_gen1&lt;/td&gt;&lt;/tr&gt;&lt;tr&gt;&lt;td&gt;lan_network&lt;/td&gt;&lt;td&gt;eth4&lt;/td&gt;&lt;td&gt;traffic_gen_server1&lt;br&gt;&lt;/td&gt;&lt;/tr&gt;&lt;tr&gt;&lt;td&gt;lan_network&lt;/td&gt;&lt;td&gt;eth5&lt;/td&gt;&lt;td&gt;unauthorized_device&lt;br&gt;&lt;/td&gt;&lt;/tr&gt;&lt;tr&gt;&lt;td&gt;vlan1&lt;br&gt;&lt;/td&gt;&lt;td&gt;eth6&lt;/td&gt;&lt;td&gt;linux_client2&lt;br&gt;&lt;/td&gt;&lt;/tr&gt;&lt;tr&gt;&lt;td&gt;vlan1&lt;/td&gt;&lt;td&gt;eth7&lt;/td&gt;&lt;td&gt;linux_server&lt;br&gt;&lt;/td&gt;&lt;/tr&gt;&lt;tr&gt;&lt;td&gt;vlan1&lt;/td&gt;&lt;td&gt;eth8&lt;/td&gt;&lt;td&gt;traffic_gen2&lt;br&gt;&lt;/td&gt;&lt;/tr&gt;&lt;tr&gt;&lt;td&gt;vlan1&lt;/td&gt;&lt;td&gt;eth9&lt;/td&gt;&lt;td&gt;traffic_gen_server2&lt;br&gt;&lt;/td&gt;&lt;/tr&gt;&lt;tr&gt;&lt;td&gt;vlan1&lt;/td&gt;&lt;td&gt;eth10&lt;/td&gt;&lt;td&gt;syslog&lt;br&gt;&lt;/td&gt;&lt;/tr&gt;&lt;/tbody&gt;&lt;/table&gt;&lt;br&gt;&lt;/div&gt;" style="image;html=1;image=img/lib/clip_art/networking/Switch_128x128.png" vertex="1" parent="1">
          <mxGeometry x="780" y="130.00000000000006" width="160" height="145" as="geometry" />
        </mxCell>
        <mxCell id="zDrr_pWAaHO8097aBKXW-85" style="edgeStyle=orthogonalEdgeStyle;rounded=0;orthogonalLoop=1;jettySize=auto;html=1;" edge="1" parent="1" source="M9ytymhfDPs7FdStXxdQ-2">
          <mxGeometry relative="1" as="geometry">
            <mxPoint x="990" y="560" as="targetPoint" />
            <Array as="points">
              <mxPoint x="1060" y="825" />
              <mxPoint x="1060" y="560" />
            </Array>
          </mxGeometry>
        </mxCell>
        <mxCell id="zDrr_pWAaHO8097aBKXW-83" style="edgeStyle=orthogonalEdgeStyle;rounded=0;orthogonalLoop=1;jettySize=auto;html=1;" edge="1" parent="1" source="M9ytymhfDPs7FdStXxdQ-14">
          <mxGeometry relative="1" as="geometry">
            <mxPoint x="990" y="540" as="targetPoint" />
            <Array as="points">
              <mxPoint x="1157" y="540" />
              <mxPoint x="1000" y="540" />
            </Array>
          </mxGeometry>
        </mxCell>
        <mxCell id="zDrr_pWAaHO8097aBKXW-88" style="edgeStyle=orthogonalEdgeStyle;rounded=0;orthogonalLoop=1;jettySize=auto;html=1;" edge="1" parent="1" source="M9ytymhfDPs7FdStXxdQ-25">
          <mxGeometry relative="1" as="geometry">
            <mxPoint x="990" y="610" as="targetPoint" />
            <Array as="points">
              <mxPoint x="1050" y="923" />
              <mxPoint x="1050" y="610" />
            </Array>
          </mxGeometry>
        </mxCell>
        <mxCell id="zDrr_pWAaHO8097aBKXW-87" style="edgeStyle=orthogonalEdgeStyle;rounded=0;orthogonalLoop=1;jettySize=auto;html=1;" edge="1" parent="1" source="M9ytymhfDPs7FdStXxdQ-17">
          <mxGeometry relative="1" as="geometry">
            <mxPoint x="990" y="599.9999999999999" as="targetPoint" />
          </mxGeometry>
        </mxCell>
        <mxCell id="zDrr_pWAaHO8097aBKXW-89" value="" style="group" vertex="1" connectable="0" parent="1">
          <mxGeometry x="1080" y="580" width="412.5" height="395.71000000000004" as="geometry" />
        </mxCell>
        <mxCell id="M9ytymhfDPs7FdStXxdQ-19" value="vlan1&lt;div&gt;192.168.20.0/24&lt;/div&gt;" style="ellipse;whiteSpace=wrap;html=1;" parent="zDrr_pWAaHO8097aBKXW-89" vertex="1">
          <mxGeometry x="30.799999999999955" y="50" width="360" height="320" as="geometry" />
        </mxCell>
        <mxCell id="M9ytymhfDPs7FdStXxdQ-2" value="linux_server&lt;div&gt;Services:&lt;br&gt;192.168.20.5&lt;/div&gt;" style="image;aspect=fixed;perimeter=ellipsePerimeter;html=1;align=center;shadow=0;dashed=0;spacingTop=3;image=img/lib/active_directory/web_server.svg;" parent="zDrr_pWAaHO8097aBKXW-89" vertex="1">
          <mxGeometry y="200" width="72" height="90" as="geometry" />
        </mxCell>
        <mxCell id="M9ytymhfDPs7FdStXxdQ-14" value="linux_client2&lt;div&gt;192.168.20.100&lt;/div&gt;" style="image;aspect=fixed;perimeter=ellipsePerimeter;html=1;align=center;shadow=0;dashed=0;spacingTop=3;image=img/lib/active_directory/workstation_client.svg;" parent="zDrr_pWAaHO8097aBKXW-89" vertex="1">
          <mxGeometry x="30.799999999999955" y="50" width="92.5" height="108.82" as="geometry" />
        </mxCell>
        <mxCell id="M9ytymhfDPs7FdStXxdQ-23" value="traffic_gen2&lt;div&gt;192.168.20.101&lt;/div&gt;" style="image;aspect=fixed;perimeter=ellipsePerimeter;html=1;align=center;shadow=0;dashed=0;spacingTop=3;image=img/lib/active_directory/workstation_client.svg;" parent="zDrr_pWAaHO8097aBKXW-89" vertex="1">
          <mxGeometry x="320" y="220" width="92.5" height="108.82" as="geometry" />
        </mxCell>
        <mxCell id="M9ytymhfDPs7FdStXxdQ-25" value="syslog&lt;br&gt;&lt;div&gt;192.168.20.250&lt;/div&gt;" style="image;aspect=fixed;perimeter=ellipsePerimeter;html=1;align=center;shadow=0;dashed=0;spacingTop=3;image=img/lib/active_directory/generic_server.svg;" parent="zDrr_pWAaHO8097aBKXW-89" vertex="1">
          <mxGeometry x="120.79999999999995" y="290" width="59.2" height="105.71" as="geometry" />
        </mxCell>
        <mxCell id="M9ytymhfDPs7FdStXxdQ-17" value="traffic_gen_server2&lt;div&gt;192.168.20.201&lt;/div&gt;" style="image;aspect=fixed;perimeter=ellipsePerimeter;html=1;align=center;shadow=0;dashed=0;spacingTop=3;image=img/lib/active_directory/generic_server.svg;" parent="zDrr_pWAaHO8097aBKXW-89" vertex="1">
          <mxGeometry x="200.79999999999995" width="59.2" height="105.71" as="geometry" />
        </mxCell>
        <mxCell id="zDrr_pWAaHO8097aBKXW-86" style="edgeStyle=orthogonalEdgeStyle;rounded=0;orthogonalLoop=1;jettySize=auto;html=1;" edge="1" parent="1" source="M9ytymhfDPs7FdStXxdQ-23">
          <mxGeometry relative="1" as="geometry">
            <mxPoint x="990" y="580" as="targetPoint" />
            <Array as="points">
              <mxPoint x="1240" y="854" />
              <mxPoint x="1240" y="580" />
            </Array>
          </mxGeometry>
        </mxCell>
      </root>
    </mxGraphModel>
  </diagram>
</mxfile>
